# xmcd CD database file
# Copyright (C) 1996 Ti Kan
#
# Track frame offsets:
#	150
#	12585
#	25407
#	43962
#	55485
#
# Disc length: 943 seconds
#
# Revision: 1
# Processed by: cddbd v1.4b41PL1 Copyright (c) Steve Scherf et al.
# Submitted via: EasyCD 2.21 - (C) 1996 Greg Leichner
#
DISCID=4403ad05
DTITLE=Roger Brown and Swing City - Swing City (EP)
DYEAR=1900
DGENRE=
TTITLE0=Swing City
TTITLE1=Just Like A Rodeo
TTITLE2=Adobe Walls
TTITLE3=Western Women
TTITLE4=Boogie Till The Cows Come Home
EXTD=
EXTT0=
EXTT1=
EXTT2=
EXTT3=
EXTT4=
PLAYORDER=
